<svg xmlns="http://www.w3.org/2000/svg"  viewBox="0 0 30 30" width="30px" height="30px"><path fill="#f78f8f" d="M15,28.5c-5.263,0-9.5-9.026-9.5-16.5C5.5,5.327,8.963,1.5,15,1.5s9.5,3.827,9.5,10.5 C24.5,19.474,20.263,28.5,15,28.5z"/><path fill="#c74343" d="M15,2c5.72,0,9,3.645,9,10c0,7.202-4.153,16-9,16s-9-8.798-9-16C6,5.645,9.28,2,15,2 M15,1 C9.467,1,5,4.267,5,12s4.467,17,10,17c5.533,0,10-9.267,10-17S20.533,1,15,1L15,1z"/><path fill="#c74343" d="M14.5,1.019v27.929C14.667,28.965,14.831,29,15,29s0.333-0.035,0.5-0.052V1.019	C15.333,1.013,15.169,1,15,1S14.667,1.013,14.5,1.019z"/><path fill="#c74343" d="M21.441,3.043L8.633,24.581c0.204,0.312,0.418,0.603,0.635,0.889L22.195,3.733	C21.955,3.486,21.705,3.255,21.441,3.043z"/><path fill="#c74343" d="M7.795,3.744l12.928,21.738c0.217-0.286,0.431-0.577,0.635-0.889L8.548,3.053	C8.284,3.265,8.034,3.497,7.795,3.744z"/><path fill="none" stroke="#c74343" stroke-miterlimit="10" d="M15 6c0 0 1.125 2 4 2 0 2.958 3 4 3 4M15 6c0 0-1.125 2-4 2 0 2.958-3 4-3 4M15 25c0 0 1.125-2 4-2h1M15 25c0 0-1.125-2-4-2h-1"/><path fill="#66798f" d="M6.015 11.555c.046.812.146 1.664.31 2.522.337 2.036.966 3.745 1.803 5.127.496.82 1.675 2.013 1.675 2.013L9.836 21.2c0 0 3.258-.871 4.157-5.083l.083-.707-.642-.31c-1.406-.68-5.124-2.946-5.444-5.238 0 0-.762-2.522-.02-4.764C6.755 6.691 6.082 8.868 6.015 11.555zM23.985 11.555c-.046.812-.146 1.664-.31 2.522-.337 2.036-.966 3.745-1.803 5.127-.496.82-1.675 2.013-1.675 2.013L20.164 21.2c0 0-3.258-.871-4.157-5.083l-.083-.707.642-.31c1.406-.68 5.124-2.946 5.444-5.238 0 0 .762-2.522.02-4.764C23.245 6.691 23.918 8.868 23.985 11.555z"/><path fill="#fff" d="M10 20c-1.99-1.99-3-5.469-3-10 .467 3.333 6 6 6 6S12.687 18.656 10 20zM17 16c0 0 5.533-2.667 6-6 0 4.531-1.01 8.01-3 10C17.313 18.656 17 16 17 16z"/></svg>